<?xml version="1.0" standalone="no"?>
<!DOCTYPE svg PUBLIC "-//W3C//DTD SVG 20010904//EN"
 "http://www.w3.org/TR/2001/REC-SVG-20010904/DTD/svg10.dtd">
<svg version="1.0" xmlns="http://www.w3.org/2000/svg"
 width="256.000000pt" height="256.000000pt" viewBox="0 0 256.000000 256.000000"
 preserveAspectRatio="xMidYMid meet">
<metadata>
Created by potrace 1.11, written by Peter Selinger 2001-2013
</metadata>
<g transform="translate(0.000000,256.000000) scale(0.100000,-0.100000)"
fill="#000000" stroke="none">
<path d="M1019 2017 l-256 -352 -108 -510 c-59 -280 -108 -514 -109 -518 0 -4
159 -105 354 -223 195 -118 358 -218 363 -223 5 -5 686 391 745 434 7 5 -209
1022 -222 1046 -12 24 -505 699 -509 699 -1 0 -117 -159 -258 -353z m459 -103
l193 -265 -71 -214 -71 -214 -47 -30 c-141 -90 -253 -92 -397 -6 l-61 36 -70
213 -71 213 194 266 c107 147 198 267 201 267 4 -1 94 -120 200 -266z m-604
-589 l41 -127 -41 -43 c-49 -51 -78 -130 -93 -253 -24 -197 36 -270 233 -281
l99 -6 43 -128 c24 -71 40 -127 36 -125 -42 19 -522 315 -523 323 0 18 156
773 160 770 2 -3 22 -61 45 -130z m936 -255 c44 -212 76 -388 72 -392 -11 -11
-516 -316 -519 -314 -1 1 16 59 39 129 l43 127 75 0 c179 0 261 68 260 215 -1
134 -45 269 -107 332 l-34 34 42 129 c24 71 44 128 46 126 1 -1 39 -175 83
-386z m-501 -512 c-12 -35 -23 -70 -26 -78 -4 -13 -53 108 -53 132 0 4 22 8
49 8 l50 0 -20 -62z"/>
<path d="M1215 1716 c-64 -20 -99 -42 -139 -86 -52 -57 -69 -103 -69 -180 -1
-79 24 -138 79 -194 56 -56 106 -76 189 -76 151 0 261 99 273 246 11 140 -71
253 -211 290 -62 16 -70 16 -122 0z"/>
</g>
</svg>
